# xmcd CD database file
#
# Track frame offsets:
#	150
#	33579
#	60438
#	105934
#	128466
#	148147
#	171013
#	218320
#	264758
#	300772
#
# Disc length: 4322 seconds
#
# Revision: 0
# Processed by: cddbd v1.4PL0 Copyright (c) Steve Scherf et al.
# Submitted via: CDex 1.51
#
DISCID=6f10e00a
DTITLE=The Clarence Spady Band - LIVE at Grico's River Street Jazz Cafe
DYEAR=1999
DGENRE=Blues
TTITLE0=Won't Sell You Out
TTITLE1=Cut Them Loose
TTITLE2=Before You Accuse Me
TTITLE3=C'Est la Vie
TTITLE4=Let's Get It On
TTITLE5=Addiction Game
TTITLE6=Jones Falls Expressway
TTITLE7=Hey Joe
TTITLE8=Picture of Love
TTITLE9=Pick Me Up
EXTD=YEAR: 1999
EXTT0=
EXTT1=
EXTT2=
EXTT3=
EXTT4=
EXTT5=
EXTT6=
EXTT7=
EXTT8=
EXTT9=
PLAYORDER=
